<svg xmlns="http://www.w3.org/2000/svg" width="200" height="200" viewBox="0 0 200 200">
  <rect width="200" height="200" fill="#FDF2F8" rx="10" ry="10"/>
  <g transform="translate(40, 40)">
    <circle cx="60" cy="60" r="40" fill="none" stroke="#EC4899" stroke-width="2"/>
    <circle cx="60" cy="60" r="30" fill="none" stroke="#EC4899" stroke-width="2" stroke-dasharray="5,5"/>
    <circle cx="60" cy="60" r="10" fill="#F9A8D4"/>
    <path d="M60,20 L60,10 M60,100 L60,110 M20,60 L10,60 M100,60 L110,60" stroke="#EC4899" stroke-width="2"/>
    <path d="M35,35 L25,25 M85,35 L95,25 M35,85 L25,95 M85,85 L95,95" stroke="#EC4899" stroke-width="2"/>
    <path d="M60,40 Q70,50 60,60 Q50,70 60,80 Q70,90 80,80" fill="none" stroke="#EC4899" stroke-width="2"/>
  </g>
</svg>