<svg xmlns="http://www.w3.org/2000/svg" width="200" height="200" viewBox="0 0 200 200">
  <rect width="200" height="200" fill="#FDF2F8" rx="10" ry="10"/>
  <g transform="translate(40, 30)">
    <circle cx="60" cy="70" r="50" fill="none" stroke="#EC4899" stroke-width="2"/>
    <circle cx="60" cy="70" r="40" fill="#F9A8D4" opacity="0.5"/>
    <path d="M60,40 Q80,60 60,80 Q40,100 60,120" fill="none" stroke="#EC4899" stroke-width="2"/>
    <path d="M40,50 L80,90 M80,50 L40,90" stroke="#EC4899" stroke-width="2"/>
    <path d="M20,70 L10,70 M100,70 L110,70" stroke="#EC4899" stroke-width="2"/>
    <path d="M30,40 L20,30 M90,40 L100,30" stroke="#EC4899" stroke-width="2"/>
    <path d="M30,100 L20,110 M90,100 L100,110" stroke="#EC4899" stroke-width="2"/>
    <path d="M60,20 L60,10 M60,120 L60,130" stroke="#EC4899" stroke-width="2"/>
  </g>
</svg>