<svg xmlns="http://www.w3.org/2000/svg" width="200" height="200" viewBox="0 0 200 200">
  <rect width="200" height="200" fill="#FDF2F8" rx="10" ry="10"/>
  <g transform="translate(40, 40)">
    <circle cx="60" cy="60" r="40" fill="none" stroke="#EC4899" stroke-width="2"/>
    <path d="M40,40 Q60,20 80,40 Q100,60 80,80 Q60,100 40,80 Q20,60 40,40" fill="#F9A8D4" stroke="#EC4899" stroke-width="2"/>
    <circle cx="60" cy="50" r="5" fill="#EC4899"/>
    <path d="M50,70 Q60,80 70,70" stroke="#EC4899" stroke-width="2" fill="none"/>
    <path d="M110,30 L120,20 M110,20 L120,30" stroke="#EC4899" stroke-width="2"/>
    <path d="M110,90 L120,80 M110,80 L120,90" stroke="#EC4899" stroke-width="2"/>
    <path d="M10,30 L20,20 M10,20 L20,30" stroke="#EC4899" stroke-width="2"/>
    <path d="M10,90 L20,80 M10,80 L20,90" stroke="#EC4899" stroke-width="2"/>
  </g>
</svg>