<svg xmlns="http://www.w3.org/2000/svg" width="200" height="200" viewBox="0 0 200 200">
  <rect width="200" height="200" fill="#FDF2F8" rx="10" ry="10"/>
  <g transform="translate(40, 30)">
    <path d="M40,50 Q60,30 80,50 Q100,70 80,90 Q60,110 40,90 Q20,70 40,50" fill="#F9A8D4" stroke="#EC4899" stroke-width="2"/>
    <circle cx="50" cy="60" r="5" fill="#EC4899"/>
    <circle cx="70" cy="60" r="5" fill="#EC4899"/>
    <path d="M50,80 Q60,90 70,80" stroke="#EC4899" stroke-width="2" fill="none"/>
    <circle cx="100" cy="40" r="15" fill="#F9A8D4" stroke="#EC4899" stroke-width="2"/>
    <circle cx="95" cy="35" r="3" fill="#EC4899"/>
    <circle cx="105" cy="35" r="3" fill="#EC4899"/>
    <path d="M95,45 Q100,50 105,45" stroke="#EC4899" stroke-width="2" fill="none"/>
    <path d="M60,110 L60,130" stroke="#EC4899" stroke-width="2"/>
    <path d="M40,120 L80,120" stroke="#EC4899" stroke-width="2"/>
  </g>
</svg>