<svg xmlns="http://www.w3.org/2000/svg" width="200" height="200" viewBox="0 0 200 200">
  <rect width="200" height="200" fill="#FDF2F8" rx="10" ry="10"/>
  <g transform="translate(40, 40)">
    <path d="M60,20 Q90,20 90,50 Q90,80 60,80 Q30,80 30,50 Q30,20 60,20" fill="#F9A8D4" stroke="#EC4899" stroke-width="2"/>
    <circle cx="50" cy="40" r="5" fill="#EC4899"/>
    <circle cx="70" cy="40" r="5" fill="#EC4899"/>
    <path d="M50,60 Q60,70 70,60" stroke="#EC4899" stroke-width="2" fill="none"/>
    <path d="M60,80 L60,100" stroke="#EC4899" stroke-width="2"/>
    <path d="M40,100 L80,100" stroke="#EC4899" stroke-width="2"/>
    <path d="M45,110 L75,110" stroke="#EC4899" stroke-width="2"/>
    <path d="M50,120 L70,120" stroke="#EC4899" stroke-width="2"/>
    <path d="M20,30 L10,20 M20,20 L10,30" stroke="#EC4899" stroke-width="2"/>
    <path d="M100,30 L110,20 M100,20 L110,30" stroke="#EC4899" stroke-width="2"/>
  </g>
</svg>